<?xml version="1.0" standalone="no"?><!DOCTYPE svg PUBLIC "-//W3C//DTD SVG 1.1//EN" "http://www.w3.org/Graphics/SVG/1.1/DTD/svg11.dtd"><svg t="1597031041294" class="icon" viewBox="0 0 1768 1024" version="1.1" xmlns="http://www.w3.org/2000/svg" p-id="4885" xmlns:xlink="http://www.w3.org/1999/xlink" width="41.4375" height="24"><defs><style type="text/css"></style></defs><path d="M153.071095 306.224907A153.071095 153.071095 0 1 0 0 153.153813a153.071095 153.071095 0 0 0 153.071095 153.071094zM1615.463502 306.303165a153.149352 153.149352 0 1 0-153.071095-153.149352 153.071095 153.071095 0 0 0 153.071095 153.149352z" fill="#607884" p-id="4886"></path><path d="M895.340693 1024c-247.684057 0-484.646876-134.211108-650.239124-368.278411a27.076993 27.076993 0 1 1 44.215321-31.302882c155.262297 219.120177 376.104132 345.34905 606.023803 345.349049s450.761506-125.837587 606.023802-345.349049a27.076993 27.076993 0 0 1 44.215322 31.302882c-165.513991 233.989046-402.555067 368.278411-650.239124 368.278411z" fill="#607884" p-id="4887"></path></svg>